# xmcd
#
# Track frame offsets:
#	150
#	18990
#	29847
#	44218
#	65259
#	77854
#	87948
#	97436
#	111090
#	127109
#	138732
#	151160
#	160735
#	174305
#	186207
#
# Disc length: 2653 seconds
#
# Revision: 1
# Processed by: cddbd v1.5.2PL0 Copyright (c) Steve Scherf et al.
# Submitted via: audiograbber 1.82.02
#
DISCID=d50a5b0f
DTITLE=Johnny Bush - Devil's Disciple
DYEAR=2004
DGENRE=Country
TTITLE0=Long Black Veil
TTITLE1=Black Jack County Chain
TTITLE2=Half a Man
TTITLE3=Jethro
TTITLE4=I Know Your Memory Well
TTITLE5=Ode to the Hole in Willie's Guitar
TTITLE6=Blaines
TTITLE7=Devil's Disciple
TTITLE8=Angel Flying Too Close to the Ground
TTITLE9=Good Deal Lucille
TTITLE10=Genuine Healer of Time
TTITLE11=Spurrin' the Chrome Off the Barstool
TTITLE12=Spring Won't Pass Me By
TTITLE13=Where Were You Last Night
TTITLE14=Three Wooden Crosses
EXTD=
EXTT0=
EXTT1=
EXTT2=
EXTT3=
EXTT4=
EXTT5=
EXTT6=
EXTT7=
EXTT8=
EXTT9=
EXTT10=
EXTT11=
EXTT12=
EXTT13=
EXTT14=
PLAYORDER=
